<svg xmlns="http://www.w3.org/2000/svg" viewBox="0 0 128 128">
  <defs>
    <linearGradient id="g" x1="0" y1="0" x2="1" y2="1">
      <stop offset="0" stop-color="#4f46e5"/>
      <stop offset="0.55" stop-color="#7c3aed"/>
      <stop offset="1" stop-color="#06b6d4"/>
    </linearGradient>
    <linearGradient id="s" x1="0" y1="0" x2="0" y2="1">
      <stop offset="0" stop-color="rgba(255,255,255,0.9)"/>
      <stop offset="1" stop-color="rgba(255,255,255,0.72)"/>
    </linearGradient>
  </defs>

  <rect x="10" y="10" width="108" height="108" rx="26" fill="url(#g)"/>
  <rect x="22" y="22" width="84" height="84" rx="20" fill="rgba(255,255,255,0.16)"/>

  <!-- simple "ruler" mark -->
  <rect x="32" y="40" width="64" height="14" rx="7" fill="rgba(255,255,255,0.92)"/>
  <g fill="rgba(15,23,42,0.72)">
    <rect x="38" y="44" width="2" height="6" rx="1"/>
    <rect x="46" y="44" width="2" height="6" rx="1"/>
    <rect x="54" y="44" width="2" height="6" rx="1"/>
    <rect x="62" y="44" width="2" height="6" rx="1"/>
    <rect x="70" y="44" width="2" height="6" rx="1"/>
    <rect x="78" y="44" width="2" height="6" rx="1"/>
    <rect x="86" y="44" width="2" height="6" rx="1"/>
  </g>

  <!-- simple "scale/compare" glyph -->
  <path d="M40 82c0-6 5-11 11-11h26c6 0 11 5 11 11v4c0 6-5 11-11 11H51c-6 0-11-5-11-11v-4z" fill="rgba(255,255,255,0.92)"/>
  <path d="M54 79h20" stroke="rgba(15,23,42,0.76)" stroke-width="6" stroke-linecap="round"/>
</svg>
